<?xml version='1.0' encoding='utf-8'?>
<svg xmlns="http://www.w3.org/2000/svg" version="1.1" width="761" height="509" viewBox="132 257 761 509" preserveAspectRatio="xMidYMid meet">
<g transform="matrix(1.6 0 0 1.6 -293.6 -288)"><path d="M0 0 C42.90545536 -0.06880908 85.8109043 -0.12160114 128.71640399 -0.15319599 C133.79270692 -0.15694768 138.86900974 -0.16083069 143.9453125 -0.16479492 C144.95582607 -0.16558185 145.96633964 -0.16636878 147.00747484 -0.16717956 C163.32572408 -0.18019975 179.64394131 -0.20383474 195.96217161 -0.23145839 C212.73166953 -0.25960718 229.5011508 -0.27619619 246.27067137 -0.28226548 C256.60130528 -0.28636237 266.93184867 -0.29925686 277.26245469 -0.3237494 C284.36621162 -0.33972384 291.46992241 -0.34437417 298.57369596 -0.34050413 C302.65966872 -0.3386006 306.74548439 -0.34131922 310.83142853 -0.35761642 C346.40753632 -0.49225956 381.51051142 1.28771225 410 25 C410.70125 25.53882813 411.4025 26.07765625 412.125 26.6328125 C429.50654133 40.58009768 439.75464339 62.77990512 442.6875 84.48828125 C444.95663062 109.98763658 439.77961986 135.49078738 423.625 155.8125 C422.10462364 157.56041568 420.56302424 159.29011442 419 161 C418.25234375 161.84046875 417.5046875 162.6809375 416.734375 163.546875 C400.46735157 180.89118475 379.54009801 188.43679368 357 194 C361.37298409 199.65805269 365.79453059 205.26955635 370.3125 210.8125 C370.87227539 211.50045654 371.43205078 212.18841309 372.00878906 212.8972168 C376.19222989 218.02997689 380.41943441 223.12410171 384.66796875 228.203125 C389.2048594 233.64435398 393.6793462 239.13729567 398.140625 244.640625 C407.71984575 256.42513398 417.58918433 267.94140025 428 279 C429.19689453 280.27810547 429.19689453 280.27810547 430.41796875 281.58203125 C441.72868271 293.29867622 454.85344347 302.14814613 468.65625 310.6328125 C470.44866379 311.73729283 472.22669883 312.86508725 474 314 C474 314.33 474 314.66 474 315 C429.58319059 318.29886118 390.97803228 313.69725631 356.01953125 284.51171875 C350.88858038 280.01728523 346.37041431 275.22360276 342 270 C341.09782036 268.94665911 340.19403826 267.89468959 339.2890625 266.84375 C330.17906729 256.26382422 321.12633464 245.64092541 312.3125 234.8125 C309.73853582 231.68200302 307.12429576 228.58828722 304.5 225.5 C300.30000488 220.55706395 296.16219621 215.56832879 292.0703125 210.53515625 C291.38710938 209.69855469 290.70390625 208.86195313 290 208 C289.00284721 206.46048172 289.00284721 206.46048172 287.98554993 204.88986206 C286.34700043 202.94546158 285.40615433 202.10995927 282.93330956 201.44047928 C280.32627917 201.22041034 277.77711802 201.19253971 275.16088867 201.22705078 C274.17504791 201.21642105 273.18920715 201.20579132 272.17349243 201.19483948 C268.92113261 201.16677722 265.67039437 201.18085132 262.41796875 201.1953125 C260.16065553 201.18406334 257.90335402 201.17018313 255.64607239 201.15377808 C249.70954291 201.11770279 243.77352804 201.11737142 237.83691406 201.12445068 C231.77724978 201.1253628 225.71777917 201.09251634 219.65820312 201.0625 C207.77208153 201.00860254 195.88623027 200.99246025 184 201 C185.62084653 197.55598213 187.42536245 195.39328482 190.1875 192.75 C193.08579644 189.9210408 195.8698581 187.07979145 198.5 184 C201.74924673 180.20921215 205.25186032 176.73121576 208.8046875 173.2265625 C211.43623748 170.55755273 213.87087983 167.75509848 216.30859375 164.91015625 C218.5330319 162.39803094 220.90669575 160.06348834 223.32421875 157.73828125 C225.14011005 155.98718415 225.14011005 155.98718415 226.52798462 153.43058777 C229.66182823 150.34926311 231.30910147 150.40174797 235.56137085 150.33665466 C236.44136749 150.34842239 237.32136414 150.36019012 238.22802734 150.37231445 C239.16197327 150.36504333 240.09591919 150.35777222 241.0581665 150.35028076 C244.15113998 150.33165679 247.24296286 150.34777928 250.3359375 150.36328125 C252.49387644 150.35523841 254.65180745 150.34471874 256.8097229 150.33183289 C262.50248316 150.30323189 268.19488006 150.30271296 273.88769531 150.30969238 C282.96308038 150.31699894 292.03834587 150.28538839 301.11363602 150.24724388 C304.26744441 150.23847176 307.42099125 150.24366703 310.57479858 150.25080872 C325.9145299 150.42372772 325.9145299 150.42372772 341 148 C341.33 147.34 341.66 146.68 342 146 C342.804375 145.896875 343.60875 145.79375 344.4375 145.6875 C351.53194557 144.31839647 357.52449602 140.61995648 363 136 C363.66 136 364.32 136 365 136 C365.33 135.01 365.66 134.02 366 133 C366.721875 132.319375 367.44375 131.63875 368.1875 130.9375 C376.72839644 122.69367822 380.75840268 110.62734531 381.25 99 C381.02786811 85.80536586 376.87386079 74.03103986 368 64.25 C354.11293398 51.13966818 336.33896802 49.83865565 318.23120117 49.90234375 C316.62537272 49.90424539 315.01954367 49.90568448 313.41371441 49.90670013 C309.94897406 49.90981836 306.48425837 49.91605542 303.01952744 49.92469788 C297.45744835 49.9384599 291.89537523 49.9448163 286.33328247 49.95007324 C278.39752726 49.95815314 270.46178058 49.96897769 262.52603149 49.98168945 C242.06684528 50.01388102 221.60764689 50.02621057 201.1484375 50.03125 C199.63839201 50.03168147 199.63839201 50.03168147 198.09784055 50.03212166 C163.50011339 50.0411096 128.90814428 49.90632647 94.3125 49.5 C92.76580439 49.4819632 92.76580439 49.4819632 91.1878624 49.46356201 C79.45833051 49.32577849 67.72904715 49.17435231 56 49 C56.03029297 49.89380371 56.06058594 50.78760742 56.09179688 51.70849609 C56.20704211 55.17161554 56.31829933 58.63482315 56.42724609 62.09814453 C56.47426281 63.56954693 56.52266849 65.04090589 56.57275391 66.51220703 C57.05345194 80.68789404 57 94.80027972 57 109 C114.09 109 171.18 109 230 109 C230 109.99 230 110.98 230 112 C229.34 112 228.68 112 228 112 C227.73662842 112.59006836 227.47325684 113.18013672 227.2019043 113.78808594 C225.94798348 116.09572815 224.64804739 117.56727394 222.76953125 119.390625 C222.1345874 120.01388672 221.49964355 120.63714844 220.84545898 121.27929688 C220.17458252 121.92962891 219.50370605 122.57996094 218.8125 123.25 C213.65022806 128.32992446 208.62891968 133.4222159 204 139 C200.47560896 143.17477742 196.91817146 147.18229448 193 151 C192.38635086 151.86227707 191.77270172 152.72455414 191.14045715 153.61296082 C186.21151129 157.35941757 181.34139949 156.6566902 175.31518555 156.56762695 C174.0269841 156.56835709 172.73878265 156.56908722 171.4115448 156.56983948 C167.8868094 156.57127214 164.36292743 156.54190826 160.83839011 156.50696969 C157.1522174 156.47568036 153.4660244 156.47277345 149.77973938 156.46684265 C142.80277195 156.45131166 135.82619698 156.41029369 128.84940225 156.3600952 C120.90511571 156.30417823 112.96081028 156.27670939 105.0163759 156.25161803 C88.67735431 156.19937683 72.33872727 156.11144952 56 156 C56.02996567 157.17418488 56.05993134 158.34836975 56.09080505 159.55813599 C56.77675528 186.81561002 57.14193822 214.05067898 57.06866455 241.31640625 C57.05806091 245.71744248 57.05379147 250.11848569 57.04882812 254.51953125 C57.03839614 263.01303813 57.02155409 271.50651405 57 280 C53.86318185 280.9216199 51.05243661 281.12654666 47.78833008 281.12939453 C46.23200615 281.13412277 46.23200615 281.13412277 44.64424133 281.13894653 C43.53058701 281.1369223 42.41693268 281.13489807 41.26953125 281.1328125 C40.12336838 281.13376923 38.97720551 281.13472595 37.79631042 281.13571167 C35.37633204 281.13639178 32.95635182 281.13454928 30.53637695 281.13037109 C26.8165278 281.12500581 23.09679859 281.13032937 19.37695312 281.13671875 C17.02864557 281.13605823 14.68033808 281.1347776 12.33203125 281.1328125 C10.65244072 281.13584885 10.65244072 281.13584885 8.93891907 281.13894653 C7.91082626 281.13579437 6.88273346 281.13264221 5.82348633 281.12939453 C4.45925285 281.12820114 4.45925285 281.12820114 3.06745911 281.12698364 C1 281 1 281 0 280 C-0.09679771 278.50392983 -0.12371741 277.00328663 -0.12304783 275.5040884 C-0.12503888 274.52674659 -0.12702993 273.54940478 -0.12908131 272.54244655 C-0.12616847 271.45589387 -0.12325563 270.36934119 -0.12025452 269.24986267 C-0.12110894 268.10561359 -0.12196337 266.9613645 -0.12284368 265.7824412 C-0.12421182 262.59224494 -0.12106454 259.40208877 -0.11606562 256.21189725 C-0.11176428 252.77698156 -0.11320732 249.34206789 -0.1139679 245.90715027 C-0.11449333 239.95123281 -0.11134448 233.99532626 -0.10573006 228.03941154 C-0.09761771 219.42806175 -0.09500011 210.81671726 -0.09374207 202.20536406 C-0.09155113 188.23545781 -0.08488991 174.26555738 -0.07543945 160.2956543 C-0.06626642 146.72176137 -0.05918505 133.14787001 -0.05493164 119.57397461 C-0.05466892 118.73787857 -0.05440619 117.90178253 -0.05413551 117.04035025 C-0.05283051 112.84608094 -0.05156679 108.65181163 -0.05032361 104.4575423 C-0.03994969 69.63835738 -0.02233024 34.81917923 0 0 Z " fill="#F7C010" transform="translate(267,342)" />
<path d="M0 0 C11 0 11 0 14 2 C10.37 2.33 6.74 2.66 3 3 C3 93.09 3 183.18 3 276 C27.255 276.495 27.255 276.495 52 277 C52.33 236.08 52.66 195.16 53 153 C55.56760638 151.71619681 57.35385951 151.89251314 60.22914124 151.915802 C61.33796661 151.92190994 62.44679199 151.92801788 63.58921814 151.93431091 C64.81153641 151.94583694 66.03385468 151.95736298 67.29321289 151.96923828 C69.26285077 151.9811655 71.23248887 151.99307322 73.20213115 152.00425029 C74.60176245 152.01245096 76.00139007 152.02130128 77.40101349 152.03075147 C82.54905871 152.06530382 87.69692245 152.08147339 92.84507751 152.08639526 C93.96567844 152.0874943 93.96567844 152.0874943 95.10891777 152.08861554 C98.19220367 152.09128111 101.27548968 152.09332785 104.35877621 152.0950911 C113.10864641 152.10086914 121.85762355 152.12452495 130.60717773 152.20214844 C137.55612099 152.26367709 144.50396582 152.28616407 151.45316118 152.26333606 C155.12919648 152.2527182 158.80283056 152.26150841 162.47850227 152.31766129 C166.58747417 152.37990276 170.69169779 152.35564951 174.80102539 152.32470703 C176.00917404 152.35647537 177.21732269 152.38824371 178.46208191 152.42097473 C183.59252493 152.32055241 186.73898492 152.12795093 190.65255547 148.62734604 C193.04919915 145.77147101 193.04919915 145.77147101 195.04361629 142.81744194 C197.01342233 139.98067013 199.14206286 137.7036038 201.625 135.3125 C205.10440062 131.92418317 208.32974135 128.40708815 211.5 124.73046875 C213.24876435 122.71301404 215.00296183 120.77514504 217 119 C217.66 119 218.32 119 219 119 C217.66000502 122.006818 216.20154709 123.99762609 213.8125 126.25 C209.38279329 130.55104303 205.38981269 135.17780066 201.40234375 139.88671875 C198.40470695 143.42101687 195.32327381 146.76193834 192 150 C191.38635086 150.86227707 190.77270172 151.72455414 190.14045715 152.61296082 C185.21151129 156.35941757 180.34139949 155.6566902 174.31518555 155.56762695 C173.0269841 155.56835709 171.73878265 155.56908722 170.4115448 155.56983948 C166.8868094 155.57127214 163.36292743 155.54190826 159.83839011 155.50696969 C156.1522174 155.47568036 152.4660244 155.47277345 148.77973938 155.46684265 C141.80277195 155.45131166 134.82619698 155.41029369 127.84940225 155.3600952 C119.90511571 155.30417823 111.96081028 155.27670939 104.0163759 155.25161803 C87.67735431 155.19937683 71.33872727 155.11144952 55 155 C55.02996567 156.17418488 55.05993134 157.34836975 55.09080505 158.55813599 C55.77675528 185.81561002 56.14193822 213.05067898 56.06866455 240.31640625 C56.05806091 244.71744248 56.05379147 249.11848569 56.04882812 253.51953125 C56.03839614 262.01303813 56.02155409 270.50651405 56 279 C37.88778623 283.52805344 18.66964262 280 0 280 C0 187.6 0 95.2 0 0 Z " fill="#F8AA03" transform="translate(268,343)" />
<path d="M0 0 C0.97774171 -0.00260775 1.95548342 -0.00521549 2.96285367 -0.00790226 C4.0498867 -0.00567154 5.13691973 -0.00344082 6.25689316 -0.0011425 C7.40169797 -0.00270249 8.54650278 -0.00426248 9.72599864 -0.00586975 C12.9179413 -0.00918296 16.10984634 -0.00797057 19.30178809 -0.00488353 C22.7388465 -0.00263115 26.17589962 -0.00610829 29.612957 -0.00886345 C36.3529408 -0.01332246 43.0929135 -0.01234394 49.83289775 -0.00945081 C55.31052148 -0.00719654 60.78814209 -0.00688436 66.26576614 -0.00797462 C67.43321225 -0.00820447 67.43321225 -0.00820447 68.62424313 -0.00843897 C70.20516994 -0.00875868 71.78609675 -0.00908289 73.36702356 -0.00941156 C88.21143041 -0.01226692 103.05583109 -0.00897883 117.90023693 -0.00361119 C130.64150092 0.00085339 143.3827558 0.00008388 156.12401962 -0.00452995 C170.90748296 -0.00988077 185.69094088 -0.01198852 200.47440505 -0.00891769 C202.05088536 -0.00859913 203.62736567 -0.00828476 205.20384598 -0.00797462 C205.97956241 -0.00782035 206.75527885 -0.00766607 207.55450185 -0.00750712 C213.0244353 -0.00664323 218.49436533 -0.00810218 223.96429825 -0.01045418 C230.63225495 -0.01325815 237.30019988 -0.0125014 243.96815524 -0.00717343 C247.37123598 -0.00454398 250.7742971 -0.00351856 254.1773777 -0.00682259 C257.86495403 -0.00954433 261.55247469 -0.0061402 265.24004745 -0.0011425 C266.3181576 -0.00337322 267.39626774 -0.00560395 268.50704789 -0.00790226 C269.98930694 -0.00399064 269.98930694 -0.00399064 271.50151062 0 C272.35268125 0.00016235 273.20385188 0.0003247 274.08081555 0.00049198 C276.63627068 0.13276867 279.00881172 0.56482039 281.50243759 1.12584114 C281.50243759 1.45584114 281.50243759 1.78584114 281.50243759 2.12584114 C262.26726298 3.06027557 243.06198832 3.27605977 223.80977941 3.26006556 C220.57339308 3.25813418 217.33701213 3.25978201 214.10062593 3.26140249 C205.44197742 3.26571315 196.78334564 3.26290584 188.12469906 3.25640619 C181.83833941 3.25172625 175.5519824 3.24935508 169.26562119 3.24815559 C111.67317411 3.2350327 54.08980617 2.94106585 -3.49756241 2.12584114 C-3.46726944 3.01964485 -3.43697647 3.91344856 -3.40576553 4.83433723 C-2.7699924 23.93931976 -2.33331622 43.00758491 -2.49756241 62.12584114 C-0.85365273 62.12251022 -0.85365273 62.12251022 0.82346725 62.11911201 C14.86228211 62.09160794 28.90110001 62.07399323 42.93993759 62.06334114 C44.62024755 62.06205711 44.62024755 62.06205711 46.33450317 62.06074715 C75.95670186 62.04075302 105.57171234 62.11398951 135.18993759 62.62584114 C136.22870607 62.64377787 136.22870607 62.64377787 137.28845978 62.66207695 C145.36006712 62.80266233 153.43139564 62.9557532 161.50243759 63.12584114 C161.50243759 63.45584114 161.50243759 63.78584114 161.50243759 64.12584114 C123.1980427 64.9567811 84.90123597 65.23738972 46.58815765 65.24922371 C43.11765642 65.25084571 39.64716169 65.25441032 36.17666245 65.2584095 C30.66597942 65.26424907 25.15532416 65.26449731 19.64463997 65.26016045 C17.58628161 65.25916096 15.52792182 65.25975748 13.46956444 65.26199913 C10.64146376 65.26453239 7.81344251 65.26077068 4.98534775 65.25523567 C4.14853124 65.25726242 3.31171473 65.25928917 2.44954014 65.26137733 C-3.26896486 65.24013991 -3.26896486 65.24013991 -5.49756241 64.12584114 C-5.52068951 55.92893553 -5.53847937 47.73204346 -5.54937458 39.53511333 C-5.55460261 35.72932537 -5.56169879 31.92355966 -5.57300186 28.1177845 C-5.58383361 24.4479157 -5.58983985 20.77806836 -5.59243965 17.10818481 C-5.59429338 15.70509122 -5.59791301 14.30199885 -5.60329247 12.89891434 C-5.6105066 10.94014434 -5.61097049 8.98135294 -5.6110878 7.02256966 C-5.61330841 5.90560204 -5.61552902 4.78863441 -5.61781693 3.63781929 C-5.41440212 -0.61128146 -3.80605512 0.00072652 0 0 Z " fill="#FBB005" transform="translate(326.49756240844727,388.87415885925293)" />
<path d="M0 0 C0.33 0 0.66 0 1 0 C1 17.73443833 -13.58460751 34.40665335 -25.2734375 46.31640625 C-40.83145896 61.17664269 -60.48853827 68.05800602 -81 73 C-72.07491462 84.63824007 -62.74118005 95.95470802 -53.33203125 107.203125 C-48.7951406 112.64435398 -44.3206538 118.13729567 -39.859375 123.640625 C-30.28015425 135.42513398 -20.41081567 146.94140025 -10 158 C-9.20207031 158.85207031 -8.40414062 159.70414063 -7.58203125 160.58203125 C3.72868271 172.29867622 16.85344347 181.14814613 30.65625 189.6328125 C32.44866379 190.73729283 34.22669883 191.86508725 36 193 C36 193.33 36 193.66 36 194 C23.8831855 195.09999014 12.12728142 194.80765706 0 194 C0.33 193.34 0.66 192.68 1 192 C8.26 192 15.52 192 23 192 C23 190.68 23 189.36 23 188 C22.29488281 187.7525 21.58976563 187.505 20.86328125 187.25 C17.63112557 185.83896341 15.03671098 184.0749274 12.1875 182 C11.21167969 181.29875 10.23585938 180.5975 9.23046875 179.875 C8.12638672 178.946875 8.12638672 178.946875 7 178 C7 177.34 7 176.68 7 176 C6.43925781 175.74476563 5.87851562 175.48953125 5.30078125 175.2265625 C-1.69820461 171.49535442 -7.45900633 165.83513626 -12.49609375 159.79296875 C-14.08395388 157.84689986 -14.08395388 157.84689986 -16.375 155.625 C-18.92371011 153.07628989 -21.37650955 150.46890768 -23.8125 147.8125 C-24.60269531 146.95269531 -25.39289062 146.09289062 -26.20703125 145.20703125 C-28 143 -28 143 -28 141 C-28.66 141 -29.32 141 -30 141 C-30.66 139.35 -31.32 137.7 -32 136 C-32.66 136 -33.32 136 -34 136 C-35.33203125 134.42578125 -35.33203125 134.42578125 -36.8125 132.3125 C-38.53368391 129.86223551 -40.22660653 127.77526936 -42.359375 125.66015625 C-45.3369067 122.66060139 -47.86841188 119.47220373 -50.4375 116.125 C-53.7001277 111.92237578 -56.97821798 107.76861661 -60.48046875 103.76171875 C-66.08737987 97.26116113 -71.42822679 90.53743864 -76.58984375 83.6796875 C-77.91269074 81.87804075 -77.91269074 81.87804075 -80 81 C-81.2890625 79.00390625 -81.2890625 79.00390625 -82.625 76.5625 C-83.29402344 75.35787109 -83.29402344 75.35787109 -83.9765625 74.12890625 C-85 72 -85 72 -85 70 C-83.99582031 69.75765625 -82.99164062 69.5153125 -81.95703125 69.265625 C-77.62910751 68.21133255 -73.31271145 67.11475579 -69 66 C-67.87980469 65.71125 -66.75960937 65.4225 -65.60546875 65.125 C-48.23336375 60.23021821 -32.38289269 51.15170443 -21 37 C-20.34 37 -19.68 37 -19 37 C-18.73703125 36.43152344 -18.4740625 35.86304688 -18.203125 35.27734375 C-16.91422321 32.83763678 -15.40324482 30.77054995 -13.75 28.5625 C-7.78157995 20.13210667 -4.10066897 10.79158622 -1 1 C-0.67 0.67 -0.34 0.34 0 0 Z " fill="#F9B106" transform="translate(705,463)" />
<path d="M0 0 C-1.33999498 3.006818 -2.79845291 4.99762609 -5.1875 7.25 C-9.61720671 11.55104303 -13.61018731 16.17780066 -17.59765625 20.88671875 C-20.59529305 24.42101687 -23.67672619 27.76193834 -27 31 C-27.61364914 31.86227707 -28.22729828 32.72455414 -28.85954285 33.61296082 C-33.78848871 37.35941757 -38.65860051 36.6566902 -44.68481445 36.56762695 C-45.9730159 36.56835709 -47.26121735 36.56908722 -48.5884552 36.56983948 C-52.1131906 36.57127214 -55.63707257 36.54190826 -59.16160989 36.50696969 C-62.8477826 36.47568036 -66.5339756 36.47277345 -70.22026062 36.46684265 C-77.19722805 36.45131166 -84.17380302 36.41029369 -91.15059775 36.3600952 C-99.09488429 36.30417823 -107.03918972 36.27670939 -114.9836241 36.25161803 C-131.32265217 36.19937681 -147.66126049 36.11044054 -164 36 C-164 39.96 -164 43.92 -164 48 C-164.99 48.495 -164.99 48.495 -166 49 C-166 44.05 -166 39.1 -166 34 C-163.43239362 32.71619681 -161.64614049 32.89251314 -158.77085876 32.915802 C-157.66203339 32.92190994 -156.55320801 32.92801788 -155.41078186 32.93431091 C-154.18846359 32.94583694 -152.96614532 32.95736298 -151.70678711 32.96923828 C-149.73714923 32.9811655 -147.76751113 32.99307322 -145.79786885 33.00425029 C-144.39823755 33.01245096 -142.99860993 33.02130128 -141.59898651 33.03075147 C-136.45094129 33.06530382 -131.30307755 33.08147339 -126.15492249 33.08639526 C-125.03432156 33.0874943 -125.03432156 33.0874943 -123.89108223 33.08861554 C-120.80779633 33.09128111 -117.72451032 33.09332785 -114.64122379 33.0950911 C-105.89135359 33.10086914 -97.14237645 33.12452495 -88.39282227 33.20214844 C-81.44387901 33.26367709 -74.49603418 33.28616407 -67.54683882 33.26333606 C-63.87080352 33.2527182 -60.19716944 33.26150841 -56.52149773 33.31766129 C-52.41252583 33.37990276 -48.30830221 33.35564951 -44.19897461 33.32470703 C-42.99082596 33.35647537 -41.78267731 33.38824371 -40.53791809 33.42097473 C-35.40747507 33.32055241 -32.26101508 33.12795093 -28.34744453 29.62734604 C-25.95080085 26.77147101 -25.95080085 26.77147101 -23.95638371 23.81744194 C-21.98657767 20.98067013 -19.85793714 18.7036038 -17.375 16.3125 C-13.89559938 12.92418317 -10.67025865 9.40708815 -7.5 5.73046875 C-2.53273138 0 -2.53273138 0 0 0 Z " fill="#F9B508" transform="translate(487,462)" />
<path d="M0 0 C4.53127544 3.29547305 11.22738532 8.37670355 12.453125 14.125 C12.63359375 14.74375 12.8140625 15.3625 13 16 C14.32225584 16.68837614 15.65773006 17.35151435 17 18 C19.04296875 20.25 19.04296875 20.25 21.1875 23 C24.93947593 27.71307321 28.83224391 32.22503379 32.89453125 36.671875 C34.75066713 38.72429983 36.53370992 40.81845709 38.3125 42.9375 C41.36140781 46.43519564 44.65859752 49.60411929 48.0625 52.75 C48.80463745 53.44017212 48.80463745 53.44017212 49.56176758 54.14428711 C52.84736728 57.13263123 56.25541698 59.62057947 60 62 C61.08539062 62.69480469 62.17078125 63.38960937 63.2890625 64.10546875 C64.38992188 64.79253906 65.49078125 65.47960937 66.625 66.1875 C67.73101563 66.88230469 68.83703125 67.57710937 69.9765625 68.29296875 C72.44511212 69.68671059 74.24077447 70.54910217 77 71 C77 71.66 77 72.32 77 73 C77.78375 73.103125 78.5675 73.20625 79.375 73.3125 C84.8088644 74.34306049 90.20375747 75.80114299 95.29541016 77.98413086 C98.12806901 79.04810391 100.75303305 79.59139568 103.73828125 80.0703125 C104.80498047 80.24433594 105.87167969 80.41835938 106.97070312 80.59765625 C108.62489258 80.85869141 108.62489258 80.85869141 110.3125 81.125 C111.43462891 81.30675781 112.55675781 81.48851562 113.71289062 81.67578125 C116.47447507 82.12233533 119.23680295 82.56355527 122 83 C122 83.33 122 83.66 122 84 C105.5345838 84.79778598 91.13102335 81.61007334 76 75 C74.56140625 74.39091797 74.56140625 74.39091797 73.09375 73.76953125 C56.89155117 66.34352345 42.35243352 53.56864564 31 40 C30.09782036 38.94665911 29.19403826 37.89468959 28.2890625 36.84375 C25.18341445 33.23707635 22.08992182 29.62015085 19 26 C18.50886719 25.42491699 18.01773438 24.84983398 17.51171875 24.25732422 C14.32313919 20.51976752 11.15461794 16.76627669 8 13 C6.77990234 11.54980469 6.77990234 11.54980469 5.53515625 10.0703125 C4.80167969 9.18085937 4.06820312 8.29140625 3.3125 7.375 C2.66925781 6.59898437 2.02601563 5.82296875 1.36328125 5.0234375 C0 3 0 3 0 0 Z " fill="#F8AC05" transform="translate(578,572)" />
<path d="M0 0 C0.99 0 1.98 0 3 0 C1.42998707 3.8536681 -1.08365507 6.08365507 -4 9 C-4.95172659 10.3022208 -5.88838711 11.61554014 -6.8125 12.9375 C-9.45687809 16.57949876 -12.30477494 18.94806733 -16.0703125 21.3828125 C-18.68837905 23.42282363 -18.68837905 23.42282363 -22 29 C9.35 29 40.7 29 73 29 C72.67 29.66 72.34 30.32 72 31 C39.33 31 6.66 31 -27 31 C-25.22143058 27.44286117 -24.08476818 25.88610569 -21.3125 23.25 C-18.59920676 20.60990711 -16.02145694 17.94085848 -13.5625 15.0625 C-10.18402732 11.12224896 -6.53911224 7.50076343 -2.8203125 3.8828125 C-0.93616102 2.12246661 -0.93616102 2.12246661 0 0 Z " fill="#FAAD03" transform="translate(479,511)" />
<path d="M0 0 C16.22369029 11.73628659 22.39368888 32.68579284 25.59765625 51.51171875 C26.0429052 55.37198389 26.19109034 59.18179168 26.1875 63.0625 C26.18814453 63.79331787 26.18878906 64.52413574 26.18945312 65.27709961 C26.12250135 72.3017099 25.22810233 79.08095921 24 86 C22.515 86.495 22.515 86.495 21 87 C21.07001221 86.44054687 21.14002441 85.88109375 21.2121582 85.3046875 C22.05785052 77.86319329 22.183502 70.48424951 22.1875 63 C22.19974609 61.7934375 22.21199219 60.586875 22.22460938 59.34375 C22.25825121 38.71009285 14.54221521 20.3365225 1.72265625 4.328125 C0 2 0 2 0 0 Z " fill="#FBB90A" transform="translate(684,375)" />
<path d="M0 0 C0.33 0 0.66 0 1 0 C0.83432067 7.28989035 -2.84202557 13.1519482 -7 19 C-7.66 19 -8.32 19 -9 19 C-9 19.66 -9 20.32 -9 21 C-10.64351457 22.36176922 -12.31522656 23.68962066 -14 25 C-15.051875 26.175625 -15.051875 26.175625 -16.125 27.375 C-24.18710017 34.73604798 -34.4273759 38.06190835 -45 40 C-45.66 39.67 -46.32 39.34 -47 39 C-46.67 38.34 -46.34 37.68 -46 37 C-43.66666667 36.66666667 -41.33333333 36.33333333 -39 36 C-38.67 35.34 -38.34 34.68 -38 34 C-36.7934375 33.8453125 -36.7934375 33.8453125 -35.5625 33.6875 C-28.46805443 32.31839647 -22.47550398 28.61995648 -17 24 C-16.34 24 -15.68 24 -15 24 C-14.505 22.515 -14.505 22.515 -14 21 C-13.278125 20.319375 -12.55625 19.63875 -11.8125 18.9375 C-6.47290097 13.83005745 -3.13403202 6.61628982 0 0 Z " fill="#FCB807" transform="translate(647,454)" />
<path d="M0 0 C10.60589509 1.36850259 20.7019006 7.77969708 27.3984375 15.8828125 C30.858946 20.45743593 34.44943438 25.41796376 36 31 C35.71069045 32.34357317 35.38269292 33.67998674 35 35 C34.52691406 34.02160156 34.05382812 33.04320312 33.56640625 32.03515625 C26.43701259 17.71052537 18.51393369 10.52494404 4 4 C2.66280088 3.3411216 1.32738165 2.67843951 0 2 C0 1.34 0 0.68 0 0 Z " fill="#FCBB09" transform="translate(612,391)" />
<path d="M0 0 C0.33 0 0.66 0 1 0 C1.33 3.3 1.66 6.6 2 10 C9.92 10.33 17.84 10.66 26 11 C26 11.33 26 11.66 26 12 C34.25 12.33 42.5 12.66 51 13 C51 13.33 51 13.66 51 14 C33.84 14 16.68 14 -1 14 C-0.67 9.38 -0.34 4.76 0 0 Z " fill="#F0AB0E" transform="translate(269,609)" />
<path d="M0 0 C-0.33 0.66 -0.66 1.32 -1 2 C-5.12209325 3.21611861 -9.29328446 3.14508745 -13.5546875 3.1328125 C-14.65077835 3.13479141 -14.65077835 3.13479141 -15.76901245 3.1368103 C-18.1377186 3.13872073 -20.50630595 3.13240478 -22.875 3.125 C-23.67780396 3.12411377 -24.48060791 3.12322754 -25.30773926 3.12231445 C-38.55874966 3.10510105 -51.7693865 2.76858336 -65 2 C-65 1.67 -65 1.34 -65 1 C-57.70630354 0.86877591 -50.41259361 0.73832843 -43.11886597 0.60884857 C-39.73141811 0.54868995 -36.34397531 0.48827259 -32.95654297 0.42724609 C-29.05437358 0.35707864 -25.15218882 0.28782749 -21.25 0.21875 C-19.44172729 0.18593933 -19.44172729 0.18593933 -17.59692383 0.15246582 C-11.73018071 0.04948598 -5.86764548 -0.02529158 0 0 Z " fill="#FBB101" transform="translate(598,493)" />
<path d="M0 0 C5.59207469 0.51429702 9.78118984 1.99269728 14.75 4.5625 C15.44448242 4.91530029 16.13896484 5.26810059 16.85449219 5.6315918 C23.03702913 8.85636309 28.52217301 12.68094411 34 17 C34.75796875 17.52980469 35.5159375 18.05960937 36.296875 18.60546875 C36.85890625 19.06566406 37.4209375 19.52585937 38 20 C38 20.66 38 21.32 38 22 C34.31375318 20.28794315 31.36828324 18.04655617 28.1953125 15.53515625 C25.57942243 13.70589504 22.87582438 12.38491788 20 11 C18.865625 10.42121094 17.73125 9.84242188 16.5625 9.24609375 C15.386875 8.64925781 14.21125 8.05242187 13 7.4375 C11.824375 6.83808594 10.64875 6.23867188 9.4375 5.62109375 C6.32676219 4.15409808 3.28422391 3.00629421 0 2 C0 1.34 0 0.68 0 0 Z " fill="#FBBB09" transform="translate(643,350)" />
<path d="M0 0 C7.26 0 14.52 0 22 0 C21.67 0.99 21.34 1.98 21 3 C13.74 2.67 6.48 2.34 -1 2 C-0.67 1.34 -0.34 0.68 0 0 Z " fill="#F7A902" transform="translate(706,655)" />
<path d="M0 0 C0 0.33 0 0.66 0 1 C5.94 1.33 11.88 1.66 18 2 C18 2.33 18 2.66 18 3 C-5.99516389 3.20638953 -5.99516389 3.20638953 -15 2 C-15 1.67 -15 1.34 -15 1 C-9.9752761 0.37470103 -5.07471573 -0.13012092 0 0 Z " fill="#F0B214" transform="translate(706,655)" />
<path d="M0 0 C1.95917659 0.0868748 3.91741871 0.19504512 5.875 0.3125 C7.51082031 0.39951172 7.51082031 0.39951172 9.1796875 0.48828125 C10.11039063 0.65714844 11.04109375 0.82601563 12 1 C12.66 1.99 13.32 2.98 14 4 C12.41632253 3.85795259 10.83306682 3.71119847 9.25 3.5625 C8.36828125 3.48128906 7.4865625 3.40007812 6.578125 3.31640625 C4.30649548 3.03761535 2.20148177 2.61209423 0 2 C0 1.34 0 0.68 0 0 Z " fill="#FCB907" transform="translate(627,346)" />
<path d="M0 0 C2 1 2 1 2 1 Z " fill="#F8C419" transform="translate(624,480)" />
<path d="" fill="#6F7070" transform="translate(0,0)" />
<path d="" fill="#DDAA26" transform="translate(0,0)" />
<path d="" fill="#EFB014" transform="translate(0,0)" />
<path d="" fill="#F3BF17" transform="translate(0,0)" />
<path d="" fill="#F3C21A" transform="translate(0,0)" />
<path d="" fill="#F4C11C" transform="translate(0,0)" />
<path d="" fill="#EEB819" transform="translate(0,0)" />
<path d="" fill="#F9C618" transform="translate(0,0)" />
<path d="" fill="#F8C71C" transform="translate(0,0)" />
<path d="" fill="#EFBD1D" transform="translate(0,0)" />
<path d="" fill="#F4C522" transform="translate(0,0)" />
<path d="" fill="#EFBB1E" transform="translate(0,0)" />
<path d="" fill="#EDBA1E" transform="translate(0,0)" />
<path d="" fill="#EEBC1F" transform="translate(0,0)" />
<path d="" fill="#F2C31D" transform="translate(0,0)" />
<path d="" fill="#F5C31E" transform="translate(0,0)" />
<path d="" fill="#F7C31D" transform="translate(0,0)" />
<path d="" fill="#F5BF1C" transform="translate(0,0)" />
<path d="" fill="#F3C01C" transform="translate(0,0)" />
<path d="" fill="#F0B920" transform="translate(0,0)" />
<path d="" fill="#EDBA21" transform="translate(0,0)" />
<path d="" fill="#7A7876" transform="translate(0,0)" />
<path d="" fill="#727373" transform="translate(0,0)" />
</g></svg>